<svg xmlns="http://www.w3.org/2000/svg" xmlns:xlink="http://www.w3.org/1999/xlink" id="logo_sello_IQNet" data-name="logo sello IQNet" width="97" height="97" viewBox="0 0 97 97"><defs><clipPath id="clip-path"><rect id="Rect&#xE1;ngulo_5432" data-name="Rect&#xE1;ngulo 5432" width="97" height="97" fill="none"></rect></clipPath></defs><g id="Grupo_5261" data-name="Grupo 5261" transform="translate(0)" clip-path="url(#clip-path)"><g id="Grupo_5341" data-name="Grupo 5341" transform="translate(10.861 10.683)"><path id="Trazado_6882" data-name="Trazado 6882" d="M12885.169,794.926c24.877-.2,37.354,23.163,36.97,34.518-.008.21.314.384.231.384h-11.546c-.546-13.612-13.84-24.216-25.5-23.971a27.274,27.274,0,0,0-26.849,23.971h-11.163c-.082,0-.182-.175-.148-.384,2.684-16.857,13.983-34.327,38.009-34.518" transform="translate(-12847.152 -794.925)" fill="#003f75" fill-rule="evenodd"></path><path id="Trazado_6883" data-name="Trazado 6883" d="M12913.587,818.9l.474.93a2.554,2.554,0,0,0,.424.637,1.126,1.126,0,0,0,.425.274,1.538,1.538,0,0,0,.713.038,3.021,3.021,0,0,0,.9-.312,2.287,2.287,0,0,0,.935-.76,1.253,1.253,0,0,0,.215-.8,2.472,2.472,0,0,0-.291-.79l-.466-.915Zm-.807-.313,4.352-2.218.765,1.5a3.946,3.946,0,0,1,.332.808,1.667,1.667,0,0,1,.014.8,2,2,0,0,1-.48.895,3.268,3.268,0,0,1-.948.7,3.381,3.381,0,0,1-.938.332,2.4,2.4,0,0,1-.785.027,1.769,1.769,0,0,1-.6-.2,1.84,1.84,0,0,1-.482-.407,3.278,3.278,0,0,1-.43-.661Zm-5.194-6.442,3.394-3.515,2.542,2.454-.4.415-2.075-2-1.04,1.075,1.944,1.878-.4.413-1.945-1.878-1.154,1.2,2.158,2.083-.4.416Zm-4.571-3.265,2.445-4.231.559.323-2.443,4.231Zm-7.432-3.022,1.429-4.672,3.152.964-.168.551-2.533-.774-.442,1.446,2.193.67-.17.552-2.192-.67-.648,2.122Zm-5.588-.665.341-4.874.644.045-.34,4.874Zm-6.781.5-.673-4.255-1.591.252-.09-.57,3.824-.606.09.569-1.6.252.674,4.257Zm-9.833.793,1.228-.653a2.073,2.073,0,0,0,.568-.407.742.742,0,0,0,.2-.436.8.8,0,0,0-.092-.449.73.73,0,0,0-.489-.386,1.183,1.183,0,0,0-.808.177l-1.365.726Zm.71,2.713-2.293-4.313,1.912-1.018a2.909,2.909,0,0,1,.938-.35,1.1,1.1,0,0,1,.7.156,1.374,1.374,0,0,1,.524.554,1.225,1.225,0,0,1,.114.932,1.7,1.7,0,0,1-.705.889,1.592,1.592,0,0,1,.459.032,3.364,3.364,0,0,1,.779.322l1.374.774-.717.383-1.049-.6c-.3-.17-.547-.295-.729-.374a1.4,1.4,0,0,0-.442-.134.94.94,0,0,0-.321.023,1.975,1.975,0,0,0-.329.149l-.661.353,1.018,1.915Zm-6.383,5.337-3.394-3.513,2.54-2.455.4.414-2.077,2,1.041,1.076,1.943-1.878.4.413-1.943,1.878,1.155,1.2,2.158-2.083.4.414Zm-4.446,3.6.44-.5a2.193,2.193,0,0,1,.75,1.2,2.013,2.013,0,0,1-.216,1.341,2.331,2.331,0,0,1-.869,1,2.02,2.02,0,0,1-1.172.248,3.33,3.33,0,0,1-1.284-.365,2.874,2.874,0,0,1-1.054-.863,2,2,0,0,1-.393-1.133,2.4,2.4,0,0,1,.275-1.188,2,2,0,0,1,.893-.929,1.931,1.931,0,0,1,1.25-.144l-.153.635a1.5,1.5,0,0,0-.917.087,1.3,1.3,0,0,0-.586.614,1.586,1.586,0,0,0-.187.96,1.425,1.425,0,0,0,.406.8,2.907,2.907,0,0,0,.766.562,3.022,3.022,0,0,0,1.052.334,1.353,1.353,0,0,0,.875-.189,1.572,1.572,0,0,0,.583-.636,1.387,1.387,0,0,0,.139-.96,1.607,1.607,0,0,0-.6-.876" transform="translate(-12851.059 -796.636)" fill="#fff" fill-rule="evenodd"></path><path id="Trazado_6884" data-name="Trazado 6884" d="M12884.369,888.387c-24.878.2-37.354-23.163-36.971-34.517.009-.212-.315-.382-.232-.382h11.546c.547,13.609,13.842,24.216,25.506,23.969a27.269,27.269,0,0,0,26.846-23.969h11.165c.082,0,.183.173.15.382-2.685,16.857-13.986,34.326-38.01,34.517" transform="translate(-12847.152 -813.513)" fill="#003f75" fill-rule="evenodd"></path><rect id="Rect&#xE1;ngulo_5427" data-name="Rect&#xE1;ngulo 5427" width="11.311" height="1.63" transform="translate(0.018 36.719)" fill="#8c8b8b"></rect><rect id="Rect&#xE1;ngulo_5428" data-name="Rect&#xE1;ngulo 5428" width="11.31" height="1.63" transform="translate(64.049 36.719)" fill="#8c8b8b"></rect><path id="Trazado_6885" data-name="Trazado 6885" d="M12917.3,870.915l-4.591-1.672.332-.915,3.647.1c.338.01.593.018.759.029q-.221-.17-.647-.513l-2.793-2.262.3-.817,4.591,1.67-.214.586-3.844-1.4,3.359,2.733-.2.549-4.391-.095,3.907,1.423Zm-2.144,3.962-4.272-2.369,1.713-3.089.5.28-1.4,2.523,1.309.726,1.311-2.364.5.278-1.312,2.364,1.455.805,1.453-2.623.5.28Zm-1.932,2.607-3.441-2.592-.969,1.286-.461-.349,2.33-3.091.461.347-.974,1.292,3.442,2.592Zm-5.281,3.227.393-.47a1.338,1.338,0,0,0,.567.285,1.123,1.123,0,0,0,.615-.08,2.011,2.011,0,0,0,1.018-.967.92.92,0,0,0,.086-.511.705.705,0,0,0-.2-.395.631.631,0,0,0-.379-.189.965.965,0,0,0-.514.107,8.4,8.4,0,0,0-.785.446,4.506,4.506,0,0,1-.882.452,1.33,1.33,0,0,1-.69.046,1.1,1.1,0,0,1-.551-.31,1.219,1.219,0,0,1-.341-.635,1.288,1.288,0,0,1,.088-.779,2.329,2.329,0,0,1,.516-.752,2.45,2.45,0,0,1,.8-.554,1.388,1.388,0,0,1,.813-.088,1.492,1.492,0,0,1,.714.376l-.405.471a1,1,0,0,0-.734-.255,1.3,1.3,0,0,0-.769.435,1.368,1.368,0,0,0-.453.757.646.646,0,0,0,.176.556.556.556,0,0,0,.44.172,2.565,2.565,0,0,0,.936-.444,6.6,6.6,0,0,1,.986-.544,1.486,1.486,0,0,1,.8-.094,1.215,1.215,0,0,1,.636.348,1.319,1.319,0,0,1,.361.677,1.473,1.473,0,0,1-.074.833,2.2,2.2,0,0,1-.53.8,2.774,2.774,0,0,1-.922.649,1.552,1.552,0,0,1-.908.087,1.642,1.642,0,0,1-.81-.432m-1.32,2.844-1.247-1.652-3.2-1.117.628-.474,1.656.6q.46.169.894.362c-.037-.292-.068-.63-.093-1.011l-.109-1.717.6-.453.138,3.423,1.245,1.653Zm-6.062,1.663.515-.334a1.34,1.34,0,0,0,.46.437,1.1,1.1,0,0,0,.611.105,1.858,1.858,0,0,0,.729-.226,1.761,1.761,0,0,0,.526-.4.889.889,0,0,0,.229-.463.7.7,0,0,0-.073-.435.63.63,0,0,0-.308-.292.964.964,0,0,0-.521-.047,8.377,8.377,0,0,0-.882.2,4.48,4.48,0,0,1-.976.174,1.353,1.353,0,0,1-.676-.157,1.116,1.116,0,0,1-.436-.457,1.254,1.254,0,0,1-.14-.708,1.3,1.3,0,0,1,.312-.72,2.369,2.369,0,0,1,.713-.568,2.447,2.447,0,0,1,.929-.294,1.366,1.366,0,0,1,.806.154,1.47,1.47,0,0,1,.574.567l-.524.33a1.008,1.008,0,0,0-.629-.457,1.3,1.3,0,0,0-.862.19,1.374,1.374,0,0,0-.654.591.644.644,0,0,0,.006.583.558.558,0,0,0,.371.293,2.565,2.565,0,0,0,1.024-.15,6.607,6.607,0,0,1,1.1-.233,1.5,1.5,0,0,1,.79.144,1.21,1.21,0,0,1,.5.519,1.338,1.338,0,0,1,.149.754,1.477,1.477,0,0,1-.316.775,2.245,2.245,0,0,1-.74.611,2.788,2.788,0,0,1-1.071.351,1.56,1.56,0,0,1-.9-.183,1.645,1.645,0,0,1-.648-.649m-8.062,3.847-.675-4.257-1.589.251-.091-.569,3.824-.606.091.57-1.6.253.674,4.256Zm-6.159.4-.17-4.885.663-.022,2.7,3.744-.135-3.834.62-.021.17,4.883-.663.024-2.7-3.747.133,3.836Zm-4.534-.53.6-4.85,3.5.43-.069.573-2.865-.352-.182,1.485,2.682.329-.069.569-2.684-.329-.2,1.65,2.977.365-.069.573Zm-5.528-1.437,1.264-4.72.941.253.222,3.64c.019.338.032.591.037.76.1-.157.251-.388.455-.69l2.009-2.98.84.225-1.264,4.719-.6-.162,1.06-3.95-2.43,3.584-.564-.152-.288-4.383-1.076,4.018Zm-4.42-2.01,2.143-4.392,3.174,1.548-.253.519-2.594-1.267-.655,1.346,2.429,1.186-.25.515-2.43-1.185-.73,1.495,2.7,1.315-.253.519Zm-1.5-3.188.32-.476,1.717,1.156-1.013,1.5a3.656,3.656,0,0,1-1.136-.076,2.947,2.947,0,0,1-.969-.422,2.776,2.776,0,0,1-.912-.988,2.036,2.036,0,0,1-.238-1.235,2.815,2.815,0,0,1,.48-1.248,3.018,3.018,0,0,1,.992-.936,1.971,1.971,0,0,1,1.225-.283,2.708,2.708,0,0,1,1.237.472,2.535,2.535,0,0,1,.7.679,1.569,1.569,0,0,1,.29.771,2.118,2.118,0,0,1-.141.871l-.572-.195a1.811,1.811,0,0,0,.1-.639,1.124,1.124,0,0,0-.2-.545,1.722,1.722,0,0,0-.486-.482,1.975,1.975,0,0,0-.711-.317,1.441,1.441,0,0,0-.631,0,1.684,1.684,0,0,0-.525.229,2.551,2.551,0,0,0-.706.711,2.4,2.4,0,0,0-.424,1.031,1.436,1.436,0,0,0,.179.908,2.01,2.01,0,0,0,.635.686,2.171,2.171,0,0,0,.772.326,2.129,2.129,0,0,0,.694.053l.51-.754Zm-4.414-3.61,1.232,1.109.525-1.347c.16-.409.3-.737.421-.984a6.155,6.155,0,0,1-.821.517Zm-2.39.547,4.664-2.375.518.466-1.783,4.969-.548-.493.566-1.482-1.519-1.368-1.388.743Zm-2.69-3.474,3.85-3.008.409.522-1.443,4.384,3.023-2.362.381.488-3.85,3.009-.408-.523,1.445-4.387-3.025,2.365Zm-.118-4.185.8,1.449.936-1.1q.425-.5.718-.794a6.221,6.221,0,0,1-.944.223Zm-2.439-.26,5.184-.727.338.609-3.3,4.117-.358-.644,1.02-1.216-.992-1.787-1.554.249Zm-1.821-4.84,4.592-1.672.333.917-2.856,2.269c-.266.211-.465.367-.6.467.187-.008.461-.017.827-.024l3.594-.063.3.818-4.591,1.67-.214-.586,3.843-1.4-4.328.064-.2-.547,3.424-2.751-3.907,1.422Z" transform="translate(-12850.112 -817.104)" fill="#fff" fill-rule="evenodd"></path><rect id="Rect&#xE1;ngulo_5429" data-name="Rect&#xE1;ngulo 5429" width="47.149" height="1.603" transform="translate(14.023 29.05)" fill="#003f75"></rect><rect id="Rect&#xE1;ngulo_5430" data-name="Rect&#xE1;ngulo 5430" width="46.98" height="1.246" transform="translate(14.098 45.92)" fill="#8c8b8b"></rect><rect id="Rect&#xE1;ngulo_5431" data-name="Rect&#xE1;ngulo 5431" width="2.347" height="10.064" transform="translate(17.226 32.98)" fill="#8c8b8b"></rect><path id="Trazado_6886" data-name="Trazado 6886" d="M12896.156,843.243h2.232l5.319,5.931v-5.931h2.438v10.064h-2.058q-.334-.38-1.059-1.2l-1.445-1.646c-.484-.549-1.094-1.245-1.835-2.081s-1.12-1.269-1.14-1.287v6.212h-2.453Z" transform="translate(-12862.706 -810.262)" fill="#8c8b8b" fill-rule="evenodd"></path><path id="Trazado_6887" data-name="Trazado 6887" d="M12926.807,843.167h.3v2.4h2.671v1.655h-2.671v2.65a5.41,5.41,0,0,0,.061.885,1.06,1.06,0,0,0,.3.595,1.04,1.04,0,0,0,.752.24,1.942,1.942,0,0,0,.619-.085q.255-.082.935-.365v1.737l-.729.242a4.978,4.978,0,0,1-.622.158,4.361,4.361,0,0,1-.778.062,2.72,2.72,0,0,1-2.125-.779,3.171,3.171,0,0,1-.708-2.215V847.22h-1.105v-.444Z" transform="translate(-12871.453 -810.238)" fill="#8c8b8b" fill-rule="evenodd"></path><path id="Trazado_6888" data-name="Trazado 6888" d="M12916.138,847.768a1.49,1.49,0,0,0-1.12.473,2,2,0,0,0-.537,1.194h3.327a1.955,1.955,0,0,0-.514-1.189,1.516,1.516,0,0,0-1.156-.478m-.148-1.474a4.1,4.1,0,0,1,1.926.408,3.225,3.225,0,0,1,1.217,1.071,4.375,4.375,0,0,1,.621,1.418,6.64,6.64,0,0,1,.176,1.515h-5.479a2.222,2.222,0,0,0,.746,1.581,2.689,2.689,0,0,0,1.769.534,4.624,4.624,0,0,0,2.83-1.057v1.544a5.939,5.939,0,0,1-3.594,1.023,4.838,4.838,0,0,1-2.207-.489,3.556,3.556,0,0,1-1.5-1.4,4.113,4.113,0,0,1-.529-2.106,4.165,4.165,0,0,1,.533-2.114,3.683,3.683,0,0,1,1.456-1.429,4.192,4.192,0,0,1,2.033-.5" transform="translate(-12867.724 -811.23)" fill="#8c8b8b" fill-rule="evenodd"></path><path id="Trazado_6889" data-name="Trazado 6889" d="M12892.108,848.993l.292.795h.765l-.616.461.248.746-.688-.454-.678.454.248-.746-.627-.461h.782Z" transform="translate(-12861.085 -812.087)" fill="#003f75" fill-rule="evenodd"></path><path id="Trazado_6890" data-name="Trazado 6890" d="M12891.354,852.261l.281.772h.764l-.615.459.248.739-.678-.446-.691.446.257-.739-.621-.459h.77Z" transform="translate(-12860.848 -813.124)" fill="#003f75" fill-rule="evenodd"></path><path id="Trazado_6891" data-name="Trazado 6891" d="M12888.807,854.746l.3.795h.753l-.628.461.254.74-.677-.442-.689.442.248-.74-.615-.461h.764Z" transform="translate(-12860.037 -813.913)" fill="#003f75" fill-rule="evenodd"></path><path id="Trazado_6892" data-name="Trazado 6892" d="M12886.573,851.74l.261.771h.79l-.628.461.235.739-.658-.446-.71.446.25-.739-.6-.461h.759Z" transform="translate(-12859.326 -812.958)" fill="#003f75" fill-rule="evenodd"></path><path id="Trazado_6893" data-name="Trazado 6893" d="M12890.845,857.539l.261.8h.79l-.622.479.23.74-.659-.454-.709.454.255-.74-.6-.479h.753Z" transform="translate(-12860.684 -814.8)" fill="#003f75" fill-rule="evenodd"></path><path id="Trazado_6894" data-name="Trazado 6894" d="M12885.2,855.9l.3.821h.752l-.6.435.229.771-.683-.455-.665.455.229-.771-.615-.435h.764Z" transform="translate(-12858.894 -814.281)" fill="#003f75" fill-rule="evenodd"></path><path id="Trazado_6895" data-name="Trazado 6895" d="M12881.894,854.761l.268.821h.771l-.611.46.244.739-.672-.441-.7.441.257-.739-.6-.46h.752Z" transform="translate(-12857.847 -813.918)" fill="#003f75" fill-rule="evenodd"></path><path id="Trazado_6896" data-name="Trazado 6896" d="M12879.383,852.313l.3.8h.752l-.6.46.25.746-.71-.455-.658.455.224-.746-.615-.46h.79Z" transform="translate(-12857.049 -813.141)" fill="#003f75" fill-rule="evenodd"></path><path id="Trazado_6897" data-name="Trazado 6897" d="M12878.619,848.941l.286.808h.764l-.6.447.224.747-.677-.429-.689.429.234-.747-.6-.447h.771Z" transform="translate(-12856.804 -812.07)" fill="#003f75" fill-rule="evenodd"></path><path id="Trazado_6898" data-name="Trazado 6898" d="M12879.546,845.627l.272.777h.783l-.628.479.249.74-.677-.429-.69.429.236-.74-.6-.479h.771Z" transform="translate(-12857.097 -811.018)" fill="#003f75" fill-rule="evenodd"></path><path id="Trazado_6899" data-name="Trazado 6899" d="M12881.871,843.078l.286.789h.771l-.609.467.217.74-.665-.448-.677.448.224-.74-.6-.467h.777Z" transform="translate(-12857.835 -810.21)" fill="#003f75" fill-rule="evenodd"></path><path id="Trazado_6900" data-name="Trazado 6900" d="M12885.353,842.261l.3.777h.753l-.6.485.229.734-.683-.448-.667.448.23-.734-.613-.485h.762Z" transform="translate(-12858.945 -809.95)" fill="#003f75" fill-rule="evenodd"></path><path id="Trazado_6901" data-name="Trazado 6901" d="M12888.979,842.974l.274.789h.771l-.616.467.249.74-.678-.448-.69.448.249-.74-.609-.467h.764Z" transform="translate(-12860.095 -810.176)" fill="#003f75" fill-rule="evenodd"></path><path id="Trazado_6902" data-name="Trazado 6902" d="M12891.061,845.575l.287.777h.771l-.616.479.226.74-.667-.454-.678.454.225-.74-.6-.479h.753Z" transform="translate(-12860.754 -811.002)" fill="#003f75" fill-rule="evenodd"></path></g></g></svg>